<?xml version="1.0" encoding="UTF-8"?>
<svg id="Layer_1" data-name="Layer 1" xmlns="http://www.w3.org/2000/svg" viewBox="0 0 1488 948">
  <defs>
    <style>
      .cls-1 {
        fill: #849ba8;
      }

      .cls-1, .cls-2, .cls-3, .cls-4, .cls-5, .cls-6 {
        stroke-width: 0px;
      }

      .cls-2 {
        fill: #898d91;
      }

      .cls-3 {
        fill: #9c8f80;
      }

      .cls-4 {
        fill: #bcb1a6;
      }

      .cls-5 {
        fill: #5c717a;
      }

      .cls-6 {
        fill: #597184;
      }
    </style>
  </defs>
  <path class="cls-5" d="M336.81,430.6c-5.98,6.07-30.17,30.23-65.35,58.69-12.53,10.13-26.45,20.82-41.44,31.43-59.54,42.13-135.9,83.02-208.46,83.46-7.39.04-14.57-.33-21.55-1.12V0h523.22c14.07,125.76-61.99,304.39-186.41,430.6Z"/>
  <path class="cls-1" d="M551.57,948H0V393.26c63.86-6.37,141.29,16.76,217.06,60.67,18.29,10.62,36.51,22.44,54.4,35.36,54.74,39.5,106.56,89.22,149.3,145.63,5.25,6.92,26.37,35.27,50.17,75.49,28.62,48.37,61.09,113.89,74.42,179.95,3.91,19.3,6.17,38.65,6.23,57.63Z"/>
  <path class="cls-2" d="M1228.22,209.37c-8.61,63.81-26.18,129.22-52.65,190.33-5.65,13.04-40.3,91.2-95.59,163.24-9.14,11.91-18.85,23.67-29.1,34.93-31.16,34.29-67.21,64.04-107.08,80.14-6.08,2.46-12.15,4.55-18.17,6.29-16.74,4.83-33.2,6.94-49.23,6.58-82.89-1.84-154.45-69.49-193.47-167.04-30.97-77.41-41.45-173.64-20.83-270.75,26-122.48,95.62-218.72,123.05-253.08h436.05c14.88,61.1,17.19,134.13,7.02,209.37Z"/>
  <path class="cls-2" d="M1488,0v455.68c-11.57,10.62-23.51,20.85-35.77,30.62-.67.54-1.56,1.24-2.65,2.1-28.48,22.35-194.68,147.8-330.68,132.01-8.71-1.01-17.07-2.57-25.08-4.67-3.63-.94-7.2-1.99-10.69-3.14-11.54-3.82-22.29-8.77-32.24-14.75-48.15-28.85-77.8-81.5-88.31-145.01-12.3-74.27,1.57-163.4,42.64-246.74,16.38-33.23,37.09-65.55,62.18-95.63,39.37-47.18,85.17-83.62,126.26-110.47h294.34Z"/>
  <path class="cls-4" d="M1488,494.15v453.85h-593.71c6.24-78.67,36.92-164.27,92.82-238.55,5.44-7.24,11.13-14.38,17.06-21.38,24.75-29.25,51.97-54.31,78.95-75.46,2.98-2.34,5.97-4.63,8.94-6.87,73.42-55.41,142.94-82.03,153.84-86.09,68.49-25.45,140.97-36.71,203.67-31.25,13.3,1.16,26.15,3.07,38.42,5.75Z"/>
  <path class="cls-1" d="M1488,343.44v352.26c-99.89,54.76-253.66,73.2-397.46,43.58-5.41-1.12-10.8-2.3-16.18-3.55-8.46-1.97-43.11-10.32-87.25-26.27-19.15-6.93-40.11-15.28-61.48-25.16-13.45-6.23-27.06-13.05-40.51-20.51-48.67-27-95.09-62.26-123.13-106.97-12.76-20.34-20.83-41.21-24.7-62.18-17.88-96.61,53.27-195.21,165.45-251.85,31.31-15.82,65.81-28.37,102.47-36.68,36-8.17,74.08-12.27,113.25-11.39,38.81.87,75.92,6.58,109.76,14.65,93.07,22.16,161.29,62.12,171.61,68.3,32,19.17,61.86,41.5,88.17,65.77Z"/>
  <path class="cls-3" d="M1090.54,739.27c-13.48,70.94-46.24,144.74-98.63,208.73H363.23c5.45-43.4,21.02-90.34,44.68-137.3,17.05-33.85,38.32-67.72,63.02-100.28,37.76-49.74,83.56-96.41,134.74-135.31,7.02-5.33,36.17-27.12,77.27-51.28,16.42-9.65,34.77-19.69,54.37-29.2,55.63-26.98,121.42-49.75,182.54-47.74,7.43.25,14.8.86,22.06,1.87,7.14,1,14.03,2.36,20.67,4.08,57.34,14.77,96.59,55.49,117.41,110.08,5.16,13.48,9.19,27.81,12.09,42.81.64,3.3,1.22,6.64,1.75,10.01,6,38.23,4.94,80.35-3.27,123.52Z"/>
  <path class="cls-6" d="M920.65,417.08c-.02,4.54-.13,14.97-.81,29.82-2.04,45.22-9.25,131.39-34.72,216.88-2.7,9.06-5.6,18.11-8.72,27.09-20.12,57.9-49.37,113.42-91.92,153.35-67.43,63.28-153.92,73.97-239.14,46.15-47.38-15.46-94.36-42.83-137.44-79.67-80.49-68.84-147.39-170.76-177.89-289.97-2.03-7.92-3.9-15.93-5.6-23.99-3.02-14.37-5.45-28.66-7.36-42.8-21.86-162.27,25.13-304.85,31.21-322.63,15.94-46.65,37.04-91.23,61.98-131.31h499.55c41.88,69.27,74.27,153.39,92.94,242.78,11.86,56.79,18.18,115.71,17.9,174.3Z"/>
</svg>